<svg xmlns="http://www.w3.org/2000/svg" version="1.1" xmlns:xlink="http://www.w3.org/1999/xlink" xmlns:svgjs="http://svgjs.dev/svgjs" width="1000" height="1000" viewBox="0 0 1000 1000"><rect width="1000" height="1000" fill="#ffffff"></rect><g transform="matrix(0.7,0,0,0.7,149.57577004225578,337.55767352959964)"><svg viewBox="0 0 396 184" data-background-color="#ffffff" preserveAspectRatio="xMidYMid meet" height="464" width="1000" xmlns="http://www.w3.org/2000/svg" xmlns:xlink="http://www.w3.org/1999/xlink"><defs></defs><g id="tight-bounds" transform="matrix(1,0,0,1,0.23999647376194844,0.02397988190469391)"><svg viewBox="0 0 395.52 183.9520420683611" height="183.9520420683611" width="395.52"><g><svg viewBox="0 0 395.52 183.9520420683611" height="183.9520420683611" width="395.52"><g><svg viewBox="0 0 395.52 183.9520420683611" height="183.9520420683611" width="395.52"><g><svg viewBox="0 0 395.52 183.9520420683611" height="183.9520420683611" width="395.52"><g><svg viewBox="0 0 395.52 183.9520420683611" height="183.9520420683611" width="395.52"><g transform="matrix(1,0,0,1,0,0)"><svg width="395.52" viewBox="1.4000015258789062 -35.79999923706055 171.14999389648438 76.60000610351562" height="183.9520420683611" data-palette-color="#010c80"><svg></svg><svg></svg><g class="undefined-text-0" data-fill-palette-color="primary" id="text-0"><path d="M17.2 0l-5-12.55h-0.9v12.55h-9.9v-34.8h10.65c9 0 13.5 3.667 13.5 11v0c0 1.967-0.367 3.767-1.1 5.4-0.733 1.633-1.95 2.95-3.65 3.95v0l6.8 14.45zM11.3-28.05v8.85h0.9c1.233 0 2.1-0.36 2.6-1.08 0.5-0.713 0.75-1.887 0.75-3.52v0c0-1.467-0.283-2.543-0.85-3.23-0.567-0.68-1.45-1.02-2.65-1.02v0zM27.75-34.8h19.85l-1 6.85h-8.95v6.95h7.9v6.7h-7.9v7.35h9.55v6.95h-19.45zM60.4-35.8c2.367 0 4.45 0.39 6.25 1.17 1.8 0.787 3.417 1.963 4.85 3.53v0l-4.1 5c-1.967-1.767-3.867-2.65-5.7-2.65v0c-0.967 0-1.683 0.25-2.15 0.75-0.467 0.5-0.7 1.167-0.7 2v0c0 0.833 0.317 1.517 0.95 2.05 0.633 0.533 1.933 1.25 3.9 2.15v0c2.067 0.967 3.693 1.923 4.88 2.87 1.18 0.953 2.07 2.103 2.67 3.45 0.6 1.353 0.9 3.047 0.9 5.08v0c0 2.233-0.507 4.217-1.52 5.95-1.02 1.733-2.48 3.073-4.38 4.02-1.9 0.953-4.133 1.43-6.7 1.43v0c-2.733 0-5.057-0.467-6.97-1.4-1.92-0.933-3.63-2.183-5.13-3.75v0l4.6-5.15c1.2 1.067 2.327 1.867 3.38 2.4 1.047 0.533 2.137 0.8 3.27 0.8v0c2.133 0 3.2-1.133 3.2-3.4v0c0-1.033-0.317-1.9-0.95-2.6-0.633-0.7-1.717-1.4-3.25-2.1v0c-3.367-1.5-5.717-3.067-7.05-4.7-1.333-1.633-2-3.7-2-6.2v0c0-2.167 0.51-4.06 1.53-5.68 1.013-1.613 2.413-2.853 4.2-3.72 1.78-0.867 3.787-1.3 6.02-1.3zM72.6-34.8h23.5l-1 7.35h-6.05v27.45h-9.9v-27.45h-6.55zM110.3-35.8c9.2 0 13.8 6.117 13.8 18.35v0c0 6.067-1.167 10.657-3.5 13.77-2.333 3.12-5.767 4.68-10.3 4.68v0c-4.533 0-7.957-1.543-10.27-4.63-2.32-3.08-3.48-7.687-3.48-13.82v0c0-6.033 1.16-10.6 3.48-13.7 2.313-3.1 5.737-4.65 10.27-4.65zM110.3-28.75c-0.9 0-1.6 0.357-2.1 1.07-0.5 0.72-0.857 1.88-1.07 3.48-0.22 1.6-0.33 3.85-0.33 6.75v0c0 3 0.1 5.307 0.3 6.92 0.2 1.62 0.55 2.78 1.05 3.48 0.5 0.7 1.217 1.05 2.15 1.05v0c0.967 0 1.7-0.35 2.2-1.05 0.5-0.7 0.85-1.85 1.05-3.45 0.2-1.6 0.3-3.917 0.3-6.95v0c0-2.867-0.107-5.11-0.32-6.73-0.22-1.613-0.587-2.78-1.1-3.5-0.52-0.713-1.23-1.07-2.13-1.07zM142.15 0l-5-12.55h-0.9v12.55h-9.9v-34.8h10.65c9 0 13.5 3.667 13.5 11v0c0 1.967-0.367 3.767-1.1 5.4-0.733 1.633-1.95 2.95-3.65 3.95v0l6.8 14.45zM136.25-28.05v8.85h0.9c1.233 0 2.1-0.36 2.6-1.08 0.5-0.713 0.75-1.887 0.75-3.52v0c0-1.467-0.283-2.543-0.85-3.23-0.567-0.68-1.45-1.02-2.65-1.02v0zM152.7-34.8h19.85l-1 6.85h-8.95v6.95h7.9v6.7h-7.9v7.35h9.55v6.95h-19.45z" data-fill-palette-color="primary" fill="#010c80" opacity="1"></path><path d="M17.2 39.8l-5-12.55h-0.9v12.55h-9.9v-34.8h10.65c9 0 13.5 3.667 13.5 11v0c0 1.967-0.367 3.767-1.1 5.4-0.733 1.633-1.95 2.95-3.65 3.95v0l6.8 14.45zM11.3 11.75v8.85h0.9c1.233 0 2.1-0.36 2.6-1.08 0.5-0.713 0.75-1.887 0.75-3.52v0c0-1.467-0.283-2.543-0.85-3.23-0.567-0.68-1.45-1.02-2.65-1.02v0zM27.75 5h9.9v34.8h-9.9zM64.7 5v34.8h-11.95l-5.25-26.25 0.15 1.2c0.333 2.467 0.6 4.757 0.8 6.87 0.2 2.12 0.3 4.447 0.3 6.98v0 11.2h-8.3v-34.8h11.9l5.3 26.3c-0.433-2.933-0.757-5.41-0.97-7.43-0.22-2.013-0.33-4.387-0.33-7.12v0-11.75zM80.95 4c3.8 0 7.083 1.35 9.85 4.05v0l-4.45 5.3c-0.8-0.7-1.557-1.243-2.27-1.63-0.72-0.38-1.48-0.57-2.28-0.57v0c-1.567 0-2.723 0.867-3.47 2.6-0.753 1.733-1.13 4.583-1.13 8.55v0c0 3.933 0.377 6.757 1.13 8.47 0.747 1.72 1.887 2.58 3.42 2.58v0c0.9 0 1.71-0.193 2.43-0.58 0.713-0.38 1.62-1.02 2.72-1.92v0l4.2 5.2c-1.3 1.4-2.817 2.54-4.55 3.42-1.733 0.887-3.667 1.33-5.8 1.33v0c-4.233 0-7.59-1.56-10.07-4.68-2.487-3.113-3.73-7.72-3.73-13.82v0c0-3.967 0.583-7.317 1.75-10.05 1.167-2.733 2.8-4.793 4.9-6.18 2.1-1.38 4.55-2.07 7.35-2.07zM105.45 4c9.2 0 13.8 6.117 13.8 18.35v0c0 6.067-1.167 10.657-3.5 13.77-2.333 3.12-5.767 4.68-10.3 4.68v0c-4.533 0-7.957-1.543-10.27-4.63-2.32-3.08-3.48-7.687-3.48-13.82v0c0-6.033 1.16-10.6 3.48-13.7 2.313-3.1 5.737-4.65 10.27-4.65zM105.45 11.05c-0.9 0-1.6 0.357-2.1 1.07-0.5 0.72-0.857 1.88-1.07 3.48-0.22 1.6-0.33 3.85-0.33 6.75v0c0 3 0.1 5.307 0.3 6.92 0.2 1.62 0.55 2.78 1.05 3.48 0.5 0.7 1.217 1.05 2.15 1.05v0c0.967 0 1.7-0.35 2.2-1.05 0.5-0.7 0.85-1.85 1.05-3.45 0.2-1.6 0.3-3.917 0.3-6.95v0c0-2.867-0.107-5.11-0.32-6.73-0.22-1.613-0.587-2.78-1.1-3.5-0.52-0.713-1.23-1.07-2.13-1.07zM145.75 5v34.8h-11.95l-5.25-26.25 0.15 1.2c0.333 2.467 0.6 4.757 0.8 6.87 0.2 2.12 0.3 4.447 0.3 6.98v0 11.2h-8.3v-34.8h11.9l5.3 26.3c-0.433-2.933-0.757-5.41-0.97-7.43-0.22-2.013-0.33-4.387-0.33-7.12v0-11.75z" data-fill-palette-color="primary" fill="#010c80" opacity="1"></path></g></svg></g></svg></g></svg></g></svg></g></svg></g></svg><rect width="395.52" height="183.9520420683611" fill="none" stroke="none" visibility="hidden"></rect></g></svg></g></svg>